<?xml version="1.0" standalone="no"?>
<!DOCTYPE svg PUBLIC "-//W3C//DTD SVG 20010904//EN"
 "http://www.w3.org/TR/2001/REC-SVG-20010904/DTD/svg10.dtd">
<svg version="1.0" xmlns="http://www.w3.org/2000/svg"
 width="626.000000pt" height="352.000000pt" viewBox="0 0 626.000000 352.000000"
 preserveAspectRatio="xMidYMid meet">
<metadata>
Created by potrace 1.16, written by Peter Selinger 2001-2019
</metadata>
<g transform="translate(0.000000,352.000000) scale(0.100000,-0.100000)"
fill="#000000" stroke="none">
<path d="M4372 3510 c13 -8 16 -20 11 -55 -4 -39 -3 -44 11 -39 16 6 21 -21
16 -83 -1 -13 3 -23 8 -23 15 0 21 -52 9 -71 -14 -23 -2 -36 18 -19 12 10 16
9 22 -5 4 -12 0 -23 -12 -31 -10 -8 -14 -14 -9 -14 6 0 15 5 21 11 15 15 32 4
29 -19 -2 -9 2 -20 8 -24 7 -5 -2 -21 -24 -44 l-35 -37 32 21 c40 28 45 28 37
-4 -5 -19 -4 -25 5 -20 6 4 9 12 6 17 -4 5 -1 9 6 9 6 0 9 -8 6 -20 -3 -11 -2
-18 2 -15 5 2 19 -7 31 -20 13 -14 19 -25 13 -25 -6 0 -14 6 -16 13 -4 8 -6 8
-6 0 -1 -6 11 -21 25 -32 28 -22 50 -28 39 -11 -3 6 1 13 9 16 24 9 19 37 -9
64 -15 14 -23 30 -20 39 3 8 1 17 -5 21 -7 4 4 17 24 31 20 13 36 29 36 36 0
7 7 10 15 7 18 -7 21 26 4 43 -8 8 -1 18 25 35 19 13 45 36 56 51 20 25 69 40
55 17 -3 -5 -2 -10 4 -10 5 0 13 5 16 11 4 6 13 8 20 5 8 -3 16 0 18 7 2 7 8
9 12 5 4 -4 -6 -18 -21 -32 -23 -20 -27 -27 -17 -37 10 -10 8 -19 -14 -41 -21
-22 -23 -28 -10 -28 14 0 15 -4 7 -26 -14 -35 -13 -44 6 -44 11 0 14 -6 9 -22
-4 -13 -7 -25 -7 -28 -1 -29 4 -32 55 -29 59 4 89 -11 146 -74 30 -33 39 -38
68 -34 18 3 40 10 48 17 8 6 18 9 24 6 5 -4 15 0 23 7 7 7 28 20 46 28 l32 16
-24 13 -25 13 25 19 c13 11 22 23 19 28 -3 5 0 12 6 16 7 4 -2 13 -22 22 -17
9 -27 18 -20 20 8 3 6 9 -7 20 -24 22 -34 50 -21 58 5 3 7 14 4 25 -5 15 -1
19 14 19 26 0 27 15 2 37 -18 15 -18 18 -4 28 21 16 8 35 -23 35 -30 0 -31 15
-1 32 26 14 29 15 62 17 14 0 28 9 32 19 4 9 11 20 17 24 6 4 0 11 -14 17 -17
6 -19 10 -8 10 9 1 20 6 23 11 4 6 -41 10 -128 10 l-133 0 -13 -51 c-7 -27
-16 -48 -19 -45 -3 3 -11 1 -19 -5 -9 -8 -13 -8 -13 -1 0 6 4 13 9 16 5 3 11
16 14 28 2 13 8 31 12 41 7 16 -5 17 -158 17 -115 0 -168 -4 -173 -12 -4 -7
-3 -8 4 -4 7 4 12 4 12 -1 -1 -12 -26 -43 -35 -43 -4 0 -15 -8 -24 -18 -9 -10
-27 -18 -41 -17 -23 0 -25 4 -28 48 l-3 47 -112 0 c-79 -1 -107 -4 -95 -10z"/>
<path d="M4292 3468 c-7 -7 -16 -13 -20 -14 -4 0 -14 -3 -22 -6 -8 -3 -43 -14
-78 -23 -63 -18 -103 -45 -67 -45 15 0 13 -4 -8 -26 -14 -14 -23 -32 -20 -39
3 -9 -5 -17 -24 -21 -15 -4 -32 -12 -36 -18 -6 -7 -7 -4 -3 7 4 12 0 17 -15
17 -32 0 -20 -34 14 -38 19 -2 27 -9 27 -23 0 -11 5 -28 12 -38 9 -15 8 -24
-6 -47 -16 -24 -16 -26 -2 -21 9 4 16 2 16 -3 0 -17 18 -11 24 8 4 14 5 13 4
-3 -1 -11 4 -31 10 -45 6 -14 11 -18 12 -10 0 12 2 12 9 2 4 -7 18 -14 30 -15
12 -1 20 -6 17 -13 -4 -10 2 -10 25 -2 16 5 29 14 29 19 0 5 10 4 23 -2 20
-11 21 -11 8 5 -23 27 -15 136 10 136 5 0 9 5 9 11 0 5 -5 7 -11 3 -9 -5 -10
1 -5 21 7 26 5 27 -24 23 -16 -3 -30 -3 -30 -1 0 9 31 35 45 37 19 3 55 45 55
65 1 9 7 33 14 53 l13 37 -23 -16 c-13 -8 -24 -19 -24 -24 0 -5 -5 -9 -12 -9
-6 0 -2 10 9 23 21 23 37 47 31 47 -2 0 -10 -6 -16 -12z"/>
<path d="M5810 3425 c-15 -18 -14 -19 25 -39 26 -14 30 -13 41 2 7 9 16 14 20
9 4 -4 -2 -16 -14 -27 -12 -12 -22 -16 -22 -10 0 5 -6 10 -13 10 -25 0 -14
-26 12 -28 14 -1 28 -7 31 -13 4 -5 11 -9 16 -8 5 1 16 1 24 0 12 -1 12 -4 -3
-15 -10 -8 -18 -17 -18 -20 1 -3 1 -7 0 -8 -7 -23 -2 -58 9 -58 7 0 10 5 7 10
-3 6 -1 10 4 10 6 0 11 5 11 10 0 6 -7 10 -15 10 -13 0 -12 4 5 22 26 29 60
31 60 5 0 -19 -1 -20 -20 -2 -11 10 -20 16 -20 13 0 -3 9 -15 20 -28 11 -13
20 -19 20 -13 0 5 6 10 14 10 9 0 12 -6 8 -16 -5 -14 -3 -14 11 -2 22 18 21
28 -3 36 -20 6 -23 24 -5 37 16 12 30 9 17 -4 -16 -16 -15 -31 2 -25 8 3 17
-2 21 -11 3 -9 1 -18 -4 -20 -6 -2 -8 -9 -5 -14 4 -7 2 -8 -5 -4 -13 9 -26
-18 -16 -34 5 -8 14 -6 28 7 22 18 22 18 4 -3 -9 -11 -14 -25 -10 -30 5 -5 -2
0 -15 11 -18 15 -27 17 -40 8 -11 -6 -26 -7 -41 -1 -15 5 -28 4 -37 -3 -15
-12 -38 -3 -29 12 6 9 -12 13 -50 10 -17 -2 -17 0 -5 8 8 6 11 11 6 11 -5 0
-1 9 9 20 10 11 26 20 37 20 10 0 18 5 18 11 0 6 -6 9 -14 6 -10 -4 -12 1 -9
16 4 18 3 19 -6 7 -9 -13 -14 -13 -31 -2 -11 7 -24 11 -28 8 -7 -4 -33 19 -27
25 2 2 -7 4 -20 4 -25 0 -56 -34 -33 -36 7 0 2 -5 -11 -10 -13 -5 -26 -7 -29
-4 -3 3 -1 5 5 5 6 0 13 9 16 19 4 15 1 18 -12 14 -9 -3 -21 -10 -28 -15 -17
-13 -27 10 -12 28 10 12 9 13 -4 8 -9 -3 -29 1 -45 8 -31 16 -52 13 -52 -6 0
-9 12 -12 35 -10 19 1 37 -2 40 -7 8 -13 -7 -34 -25 -34 -8 0 -14 -5 -13 -12
2 -7 -4 -10 -12 -7 -20 8 -19 -12 3 -61 10 -22 17 -44 17 -50 -3 -25 -35 -85
-46 -85 -8 0 -6 -6 4 -18 9 -10 20 -33 23 -51 4 -17 9 -30 11 -27 3 2 13 -4
24 -15 10 -10 25 -19 33 -19 8 0 16 -7 20 -15 3 -8 12 -15 21 -15 8 0 15 -4
15 -8 0 -11 95 -59 135 -68 17 -4 61 -7 99 -6 65 2 71 5 115 43 68 61 96 72
153 65 46 -6 48 -6 48 19 0 22 -4 25 -37 25 -21 0 -62 -11 -92 -25 -53 -25
-76 -26 -53 -3 7 7 12 21 12 33 0 11 9 26 20 33 11 7 20 21 20 31 0 11 6 22
13 24 8 4 7 6 -3 6 -9 1 -21 -4 -28 -11 -7 -7 -12 -9 -12 -4 0 10 27 36 38 36
5 0 7 11 5 24 -6 28 12 42 32 26 8 -7 15 -9 15 -4 0 4 6 -1 14 -11 12 -16 12
-12 5 38 -5 31 -13 67 -19 81 -12 33 -77 104 -111 122 -24 12 -30 12 -43 -1
-21 -21 -25 -19 -20 13 3 23 2 25 -8 11 -12 -15 -19 -19 -35 -19 -5 0 0 -7 10
-15 18 -13 18 -14 -4 -25 -19 -11 -21 -10 -16 3 4 10 1 14 -7 11 -7 -3 -29 6
-49 20 -26 18 -34 20 -30 9 5 -13 2 -15 -11 -10 -10 4 -15 3 -11 -3 7 -12 -5
-13 -23 -2 -7 5 -10 16 -6 25 8 21 0 22 -16 2z"/>
<path d="M4507 1493 c-4 -3 -7 -15 -7 -25 0 -21 -10 -23 -29 -5 -11 10 -13 10
-7 0 10 -18 -4 -16 -26 4 -18 16 -18 16 -12 -2 5 -12 4 -16 -4 -11 -8 4 -10 2
-6 -8 3 -9 -2 -17 -15 -21 -12 -3 -21 -11 -21 -16 0 -5 -11 -19 -25 -31 -32
-27 -32 -42 -1 -34 30 7 42 -17 20 -39 -22 -22 -47 -19 -41 4 4 17 0 19 -25
16 -17 -2 -31 1 -34 9 -3 7 -26 13 -54 15 -28 1 -66 9 -86 17 -26 11 -39 12
-44 4 -4 -6 -14 -8 -23 -4 -17 6 -22 -7 -18 -48 1 -10 -3 -18 -8 -18 -6 0 -11
-11 -11 -25 0 -15 -9 -31 -25 -41 -25 -16 -34 -44 -15 -44 6 0 15 -12 20 -26
6 -14 14 -22 20 -19 5 3 10 -3 10 -14 0 -11 5 -23 10 -26 15 -9 -6 -42 -36
-58 -22 -12 -24 -15 -10 -26 12 -10 13 -18 4 -36 -8 -18 -24 -27 -60 -35 -27
-5 -54 -8 -59 -5 -5 4 -6 -1 -3 -9 3 -9 11 -16 18 -16 6 0 4 -5 -4 -10 -9 -6
6 -7 45 -3 70 7 69 -5 -1 -15 -51 -7 -68 -26 -35 -37 15 -5 20 -12 16 -28 -4
-17 3 -27 31 -44 19 -13 46 -26 60 -29 25 -7 31 -18 13 -29 -15 -10 36 -35 61
-30 11 2 26 -3 33 -10 33 -40 79 -86 82 -83 8 8 -26 68 -38 68 -8 0 -18 7 -21
16 -8 22 -8 26 4 19 19 -11 10 14 -9 27 -37 26 -31 92 10 113 29 16 30 17 12
30 -12 9 -13 14 -5 15 18 0 43 -26 34 -35 -11 -11 124 2 146 14 22 12 86 -4
77 -19 -3 -4 2 -11 11 -14 12 -5 14 -15 9 -49 -5 -33 -3 -46 9 -56 9 -8 16
-22 16 -33 0 -15 -5 -18 -20 -13 -11 4 -20 2 -20 -4 0 -13 -47 -15 -54 -2 -3
5 -15 7 -27 4 -14 -4 -17 -8 -9 -13 6 -4 11 -10 11 -14 -3 -24 2 -32 25 -34
14 -1 23 2 19 8 -3 6 -1 10 4 10 6 0 11 -11 11 -25 0 -16 -6 -25 -15 -25 -12
0 -15 -9 -13 -37 3 -33 0 -38 -20 -39 -21 -1 -21 0 -7 16 9 10 13 24 9 34 -6
15 -7 15 -18 1 -14 -20 -42 -11 -49 15 -3 14 0 17 12 13 14 -4 14 -3 1 6 -24
17 -33 13 -28 -14 3 -13 1 -22 -3 -19 -5 3 -9 13 -9 23 0 10 -9 21 -19 24 -14
3 -18 1 -14 -9 3 -8 9 -14 14 -14 5 0 9 -5 9 -11 0 -6 -9 -8 -20 -4 -14 4 -20
2 -20 -8 0 -9 -6 -18 -12 -20 -10 -4 -10 -6 0 -6 14 -1 17 -41 2 -41 -5 0 -10
-4 -10 -10 0 -5 6 -7 14 -4 9 3 17 -3 21 -16 5 -17 12 -20 30 -16 24 6 75 -29
75 -53 0 -9 6 -11 18 -6 9 4 23 8 31 8 8 0 16 9 19 19 6 24 22 23 24 -2 7 -83
7 -81 -28 -78 -19 1 -39 -3 -46 -10 -6 -6 -18 -12 -25 -12 -7 0 -14 -6 -15
-12 -12 -101 -58 -197 -101 -210 l-22 -6 22 -1 c12 -1 26 -7 30 -14 4 -8 23
-22 41 -32 17 -11 32 -23 32 -28 0 -5 11 -7 25 -5 14 3 28 1 31 -3 7 -12 64
-11 64 0 0 6 -8 16 -18 23 -9 7 -25 25 -35 41 -19 30 -37 36 -37 12 0 -23 -37
-18 -54 7 -9 12 -16 32 -16 44 0 25 43 64 71 64 11 0 19 7 19 15 0 10 11 15
38 16 20 1 40 1 45 0 4 0 7 5 7 12 0 7 13 17 29 23 23 9 36 8 67 -8 21 -10 47
-29 57 -41 10 -12 16 -16 12 -9 -4 7 0 12 10 12 25 0 55 -19 55 -35 0 -7 9
-17 20 -20 11 -3 24 -15 30 -25 17 -32 101 -74 153 -76 49 -3 88 -25 84 -48
-1 -8 53 -12 186 -14 150 -2 187 0 181 10 -6 10 -4 11 7 1 10 -10 103 -13 392
-13 l379 0 -31 31 c-35 35 -36 38 -18 63 13 18 14 18 22 0 5 -10 9 -22 9 -25
1 -3 13 -19 27 -36 21 -25 33 -31 70 -31 39 -1 42 1 23 11 -12 7 -19 19 -17
27 4 13 2 13 -9 0 -7 -9 -21 -14 -31 -12 -16 3 -16 5 3 32 13 18 16 31 10 35
-17 11 -11 28 8 20 9 -4 32 -9 50 -11 30 -4 32 -2 32 25 0 16 -6 32 -12 34
-10 4 -10 6 0 6 17 1 15 58 -3 64 -8 4 -17 2 -21 -4 -4 -6 -13 -4 -24 6 -10 9
-23 14 -29 11 -5 -4 -17 4 -25 16 l-16 22 0 -22 c0 -12 4 -22 9 -22 5 0 13 -9
16 -20 4 -11 11 -17 17 -14 6 4 6 -2 -1 -15 -7 -11 -20 -21 -31 -21 -10 0 -27
-3 -37 -6 -15 -6 -16 -4 -5 7 14 16 16 49 2 49 -5 0 -10 -4 -10 -10 0 -5 -6
-10 -12 -10 -8 1 -5 8 7 18 11 9 22 28 23 42 2 14 8 27 13 28 5 2 6 8 3 13 -3
6 -11 5 -20 -2 -10 -8 -14 -8 -14 0 0 19 -16 12 -29 -13 -9 -15 -21 -23 -36
-22 -13 0 -21 5 -18 9 3 5 11 6 19 3 19 -7 18 12 -1 30 -14 14 -19 11 -16 -9
1 -5 -3 -6 -9 -2 -5 3 -15 3 -21 -1 -7 -4 -28 -8 -47 -10 -18 -2 -41 -9 -51
-16 -15 -12 -15 -11 -1 7 18 24 41 45 67 62 16 10 13 11 -17 10 -19 -1 -43
-10 -53 -20 -13 -13 -22 -15 -36 -7 -14 7 -20 6 -25 -5 -4 -12 -10 -12 -38 -1
-31 14 -33 13 -65 -21 -38 -40 -39 -43 -15 -43 9 0 22 -8 28 -18 10 -15 7 -17
-20 -17 -17 0 -34 4 -38 10 -4 6 -13 2 -22 -10 -14 -20 -14 -20 -38 1 -13 12
-31 24 -40 27 -23 8 -23 27 -2 27 13 0 14 3 4 15 -7 8 -10 22 -6 30 5 14 9 13
28 -4 12 -12 24 -18 27 -15 3 3 -2 10 -12 15 -11 7 -17 22 -17 44 0 18 -6 40
-14 48 -13 12 -12 16 7 25 32 15 96 22 102 11 4 -5 12 -9 18 -9 9 0 9 2 -1 8
-7 5 12 13 50 20 80 16 107 17 138 8 l25 -7 -26 17 c-35 23 -62 77 -46 93 8 8
8 11 -1 11 -7 0 -12 5 -12 10 0 6 6 10 14 10 16 0 28 37 15 46 -8 5 -69 -31
-69 -41 0 -2 9 -20 21 -39 11 -19 17 -40 14 -47 -6 -8 -9 -8 -15 1 -6 9 -12 9
-30 0 -12 -6 -31 -9 -43 -6 -11 3 -29 0 -40 -6 -14 -7 -17 -7 -13 1 4 6 0 11
-9 11 -10 0 -13 -5 -9 -12 5 -8 2 -9 -9 -5 -10 3 -17 3 -17 -1 0 -14 -49 -10
-54 5 -3 8 -10 12 -15 8 -19 -11 -51 28 -51 62 0 29 4 34 30 40 17 3 30 12 30
19 0 9 11 14 28 14 22 0 28 5 28 23 0 12 -8 31 -18 41 -20 22 -23 47 -7 63 17
17 -7 26 -31 11 -11 -7 -20 -18 -20 -25 0 -9 -7 -9 -30 -1 -22 7 -33 18 -37
39 -5 29 -23 41 -23 17 -1 -19 -39 54 -40 75 0 21 -9 22 -24 1 -18 -24 -46 -8
-40 24 6 30 -10 82 -25 82 -5 0 -4 -12 4 -27 9 -17 11 -31 5 -38 -6 -7 -7 -15
-3 -18 3 -4 -4 -7 -16 -7 -16 0 -21 -4 -18 -14 5 -12 -1 -13 -29 -9 -35 6 -48
-9 -18 -21 11 -4 14 -14 9 -35 -4 -18 -2 -32 5 -36 18 -11 59 15 62 39 2 11
12 22 22 24 15 3 18 0 13 -17 -4 -17 -2 -19 13 -11 25 14 30 13 30 -6 0 -9 5
-12 11 -8 9 5 10 -1 5 -19 -5 -23 -2 -28 19 -33 14 -3 30 -14 35 -24 10 -19
35 -21 65 -3 18 10 21 9 23 -14 1 -19 -2 -24 -13 -19 -10 4 -20 -3 -27 -19 -8
-19 -14 -22 -24 -14 -16 13 -76 8 -81 -7 -2 -7 3 -19 12 -27 16 -16 11 -47 -9
-47 -6 0 -3 -5 7 -11 9 -5 17 -19 17 -29 0 -23 -1 -24 -34 -9 -20 9 -23 16
-16 33 7 19 5 22 -19 20 -41 -2 -44 -3 -32 -18 9 -10 7 -17 -6 -27 -11 -9 -14
-10 -9 -1 10 17 -4 15 -26 -5 -18 -16 -18 -16 -12 2 6 13 4 16 -6 10 -8 -5
-11 -3 -8 5 6 20 -24 47 -47 42 -15 -3 -17 -1 -6 6 9 7 10 12 2 16 -6 4 -15
-4 -21 -18 -5 -14 -12 -26 -15 -26 -8 0 6 51 26 94 26 54 25 80 0 67 -10 -6
-21 -18 -25 -26 -3 -9 -2 -13 4 -10 13 8 12 5 -1 -34 -6 -17 -16 -31 -22 -32
-7 -1 -23 -2 -37 -2 -18 -2 -26 -8 -28 -27 -5 -31 -28 -48 -59 -42 -13 2 -43
-1 -68 -8 -37 -10 -48 -10 -75 3 -17 9 -38 13 -47 10 -13 -5 -15 -2 -10 11 4
10 7 21 7 26 0 5 20 7 45 6 24 -2 42 1 39 5 -3 5 2 12 11 15 9 4 14 13 11 21
-3 8 -1 11 4 8 6 -3 10 -2 10 4 0 5 -5 13 -10 16 -18 11 9 35 34 31 11 -3 24
-5 27 -5 12 -2 16 -60 5 -66 -6 -3 7 -2 29 1 22 4 46 7 53 7 6 0 12 5 12 10 0
5 7 6 16 3 14 -5 15 -4 4 9 -11 13 -10 14 3 10 10 -4 18 1 22 15 8 27 2 35
-19 23 -20 -11 -86 -4 -86 8 0 5 4 9 10 9 5 0 7 7 4 15 -4 8 -1 15 6 15 6 0 9
4 6 9 -3 5 -15 7 -26 4 -11 -3 -40 0 -64 7 -38 10 -45 16 -49 44 -6 38 -2 46
23 46 27 0 33 16 14 35 -15 15 -18 15 -35 -1 -11 -9 -19 -25 -19 -36 0 -24 -4
-23 -39 11 -22 22 -37 28 -60 25 -17 -2 -31 1 -31 7 0 6 4 8 9 5 5 -3 12 1 15
10 4 11 1 14 -12 12 -9 -1 -23 2 -31 6 -10 7 -13 5 -9 -5 23 -55 23 -55 2 -38
-32 27 -44 32 -38 15 3 -9 10 -16 15 -16 5 0 9 -7 9 -15 0 -18 36 -39 45 -25
3 5 11 10 18 10 6 0 2 -7 -9 -16 -14 -12 -16 -17 -6 -21 31 -12 81 -65 75 -79
-4 -10 2 -14 22 -14 32 0 29 -23 -3 -25 -12 -1 -22 1 -22 4 0 8 -146 4 -187
-5 -18 -3 -33 -11 -33 -16 0 -5 -5 -6 -11 -3 -6 4 -8 13 -5 21 3 7 0 16 -6 20
-7 4 -8 3 -4 -4 11 -19 -5 -14 -20 6 -7 9 -14 25 -14 35 0 9 -4 17 -10 17 -5
0 -7 7 -4 15 4 8 10 13 14 10 5 -3 11 -1 14 4 4 5 2 12 -3 16 -6 3 -8 12 -4
20 5 14 -12 20 -42 16 -26 -3 33 30 62 35 27 5 37 2 53 -16 10 -12 27 -20 36
-18 15 2 12 9 -16 42 -39 44 -50 78 -23 74 10 -2 17 3 15 10 -5 25 30 8 41
-20 12 -32 91 -5 107 37 6 16 15 22 28 18 13 -3 24 4 36 21 9 15 26 26 39 26
16 0 18 3 9 9 -8 4 -13 11 -13 15 2 21 -13 65 -21 60 -5 -4 -8 -15 -5 -25 3
-11 1 -19 -3 -19 -4 0 -13 -13 -19 -30 -5 -16 -15 -30 -20 -30 -11 0 -6 18 16
60 19 37 17 53 -8 47 -15 -4 -19 -2 -15 9 7 19 -1 18 -35 -7 -16 -11 -36 -22
-44 -23 -8 -1 -17 -5 -21 -8 -3 -4 -12 -4 -20 -1 -8 3 -14 0 -14 -6 0 -13 -39
-35 -48 -26 -4 3 -1 10 7 14 10 6 8 9 -6 13 -16 4 -18 -2 -17 -49 1 -88 -28
-101 -106 -47 l-35 24 -3 -36 c-2 -19 1 -56 6 -80 9 -43 9 -45 -20 -60 -28
-15 -31 -14 -55 10 -14 14 -32 26 -40 26 -10 0 -13 6 -8 18 20 49 27 74 22 79
-10 9 -28 -9 -23 -23 3 -8 1 -14 -4 -14 -6 0 -10 9 -10 19 0 10 -7 21 -15 25
-8 3 -14 0 -12 -6 3 -15 -32 -23 -44 -11 -14 14 1 45 18 39 8 -3 12 -2 9 3 -6
9 17 42 60 88 21 23 24 24 47 8 34 -22 47 -3 43 61 -2 32 2 55 11 66 13 14 12
19 -5 36 -22 22 -19 34 4 25 20 -7 17 4 -6 34 -24 30 -25 43 -6 43 21 0 27 27
10 45 -8 8 -12 19 -9 25 7 11 2 13 -8 3z m706 -965 c-5 -10 -16 -88 -15 -112
1 -24 8 -30 26 -23 13 5 13 12 4 38 -9 27 -8 34 6 45 10 7 24 10 31 8 7 -3 30
-1 50 5 20 5 46 6 57 2 17 -6 18 -9 4 -20 -8 -7 -12 -19 -9 -27 8 -21 -26 -56
-49 -48 -39 12 -68 14 -68 4 0 -5 6 -10 13 -10 8 0 8 -3 -2 -9 -8 -5 -21 -7
-30 -3 -14 5 -13 2 2 -15 9 -11 17 -27 17 -35 0 -9 6 -18 13 -21 9 -3 9 -8 -2
-18 -9 -9 -11 -9 -7 -1 5 8 0 12 -12 12 -20 0 -26 -27 -9 -48 6 -8 6 -12 -1
-12 -6 0 -14 9 -17 20 -4 11 -11 18 -16 15 -5 -4 -2 -13 6 -22 20 -19 14 -39
-11 -35 -47 7 -64 13 -64 24 0 6 -7 19 -15 28 -12 13 -13 23 -6 44 10 24 8 26
-15 26 -16 0 -23 4 -18 11 3 6 1 22 -6 35 -12 22 -14 22 -26 6 -13 -16 -15
-15 -33 7 -10 13 -23 21 -30 17 -6 -4 -11 -3 -11 2 0 6 7 13 16 16 9 4 14 9
11 12 -10 10 -84 -16 -102 -36 -10 -11 -42 -36 -72 -56 -29 -19 -53 -39 -53
-44 0 -5 20 -18 45 -29 25 -11 45 -25 45 -31 0 -6 11 -3 25 8 26 20 30 20 98
-4 9 -4 17 -11 17 -16 0 -5 -4 -6 -10 -3 -5 3 -10 2 -10 -3 0 -15 48 -24 70
-12 10 5 22 19 25 30 3 11 11 20 16 20 13 0 11 -24 -3 -39 -8 -9 -8 -11 -2 -8
7 4 15 -1 19 -10 3 -10 1 -19 -4 -21 -14 -5 -14 -32 0 -32 6 0 8 -7 5 -16 -5
-14 -4 -15 9 -4 12 10 15 10 15 -3 0 -24 -35 -52 -83 -66 -23 -7 -50 -17 -61
-23 -12 -6 -16 -6 -11 1 3 6 -1 11 -9 11 -19 0 -48 29 -41 41 4 5 -1 9 -9 9
-9 0 -16 4 -16 8 0 4 -9 8 -20 8 -12 0 -19 -5 -16 -13 3 -7 -1 -10 -10 -6 -7
3 -14 13 -14 23 0 11 -5 22 -10 25 -6 4 -8 11 -5 16 4 5 -1 9 -10 9 -9 0 -13
-4 -10 -10 7 -12 -25 -13 -43 -1 -20 12 -29 62 -21 108 10 54 48 111 102 154
34 28 50 34 94 34 45 1 59 6 86 32 35 33 90 56 103 43 5 -4 18 -11 30 -14 16
-5 24 0 34 21 12 26 13 27 20 8 4 -11 6 -23 3 -27z m-491 22 c6 0 8 -7 4 -15
-3 -9 0 -15 10 -15 8 0 12 4 9 10 -3 5 0 7 7 5 13 -5 19 -78 8 -88 -16 -14
-59 -15 -70 -2 -7 8 -16 12 -21 9 -16 -10 -9 -24 11 -24 11 0 19 -6 18 -12 -2
-7 4 -11 12 -10 8 2 11 0 7 -5 -14 -13 -51 -9 -64 7 -6 8 -10 26 -7 40 2 14 1
19 -2 12 -5 -10 -10 -8 -21 8 -13 19 -13 23 3 41 9 10 23 19 31 19 7 0 16 7
20 16 3 8 12 13 20 10 8 -3 19 -6 25 -6z"/>
<path d="M2517 1053 c-22 -23 -30 -26 -45 -17 -16 10 -18 8 -17 -21 0 -33 19
-65 39 -65 12 0 56 -63 56 -80 0 -18 130 -140 150 -140 11 0 44 -29 80 -72 56
-67 131 -147 162 -174 24 -21 66 -73 62 -77 -3 -2 15 -22 38 -43 24 -22 45
-44 47 -49 7 -15 47 -45 60 -45 6 0 11 -6 11 -14 0 -8 8 -17 18 -20 9 -4 28
-16 42 -27 16 -14 19 -19 8 -15 -10 3 -18 3 -18 0 0 -12 149 -152 169 -159 12
-4 18 -12 14 -21 -4 -11 4 -14 36 -14 l40 0 -69 65 c-41 39 -78 65 -92 66 -13
0 -18 3 -11 5 6 3 -55 71 -135 152 -81 81 -212 217 -292 302 -80 85 -183 193
-230 240 -47 48 -95 100 -107 117 -20 28 -21 32 -6 53 15 21 15 22 -7 15 -25
-8 -22 4 13 43 29 31 17 28 -16 -5z"/>
<path d="M3642 558 c12 -11 14 -18 6 -33 -9 -15 -8 -17 6 -12 9 4 16 2 16 -3
0 -6 -4 -10 -10 -10 -5 0 -7 -7 -4 -15 4 -8 9 -13 13 -11 4 3 7 -4 7 -15 0
-11 -5 -18 -13 -15 -7 3 -10 -1 -6 -10 3 -9 13 -14 23 -11 17 4 17 2 4 -29
-13 -31 -13 -33 6 -29 16 3 18 0 10 -19 -6 -17 -4 -27 8 -39 28 -26 42 -45 42
-57 0 -6 -4 -8 -10 -5 -5 3 -10 2 -10 -4 0 -6 9 -15 20 -21 22 -12 27 -36 8
-43 -8 -4 -4 -8 9 -12 13 -4 20 -11 17 -16 -3 -5 0 -9 5 -9 6 0 11 -7 11 -16
0 -9 5 -12 12 -8 7 5 9 2 5 -8 -4 -11 1 -18 14 -21 11 -3 19 -14 19 -26 0 -32
1 -35 12 -48 10 -12 118 -19 118 -8 0 3 -22 33 -48 68 -70 89 -124 172 -161
245 -17 34 -36 62 -42 62 -5 0 -7 5 -3 11 4 8 -1 9 -17 4 -23 -7 -23 -7 -7 12
16 17 16 21 2 48 -8 16 -18 32 -22 35 -4 3 -7 11 -8 18 -1 6 -2 19 -2 27 -1 8
-12 19 -24 25 -20 10 -21 9 -6 -2z"/>
</g>
</svg>
